<svg width="24" height="24" viewBox="0 0 24 24" fill="none" xmlns="http://www.w3.org/2000/svg">
<path fill-rule="evenodd" clip-rule="evenodd" d="M19.2371 3.225C18.9538 2.84729 18.5092 2.625 18.0371 2.625H6.03705C5.56492 2.625 5.12033 2.84729 4.83705 3.225L1.50005 7.676C1.08314 8.23223 1.10301 9.00202 1.54805 9.536L10.8861 20.836C11.1711 21.1763 11.5922 21.3729 12.0361 21.3729C12.48 21.3729 12.9011 21.1763 13.1861 20.836L22.5241 9.536C22.9691 9.00202 22.989 8.23223 22.5721 7.676L19.2371 3.225Z" stroke="white" stroke-width="1.2" stroke-linecap="round" stroke-linejoin="round"/>
<path d="M5.349 2.79201L12.037 21.375" stroke="white" stroke-width="1.2" stroke-linecap="round" stroke-linejoin="round"/>
<path d="M18.724 2.79201L12.037 21.375" stroke="white" stroke-width="1.2" stroke-linecap="round" stroke-linejoin="round"/>
<path d="M1.198 8.625H22.871" stroke="white" stroke-width="1.2" stroke-linecap="round" stroke-linejoin="round"/>
<path d="M7.53699 8.625L12.037 2.625L16.537 8.625" stroke="white" stroke-width="1.2" stroke-linecap="round" stroke-linejoin="round"/>
</svg>
