<svg width="10" height="12" viewBox="0 0 10 12" fill="none" xmlns="http://www.w3.org/2000/svg">
<path d="M1 2.085V8.5C0.999902 9.13472 1.24123 9.74571 1.67504 10.209C2.10885 10.6724 2.70265 10.9534 3.336 10.995L3.5 11H7.914C7.81061 11.2924 7.61913 11.5456 7.3659 11.7247C7.11267 11.9038 6.81016 12 6.5 12H3C2.20435 12 1.44129 11.6839 0.87868 11.1213C0.316071 10.5587 2.06237e-07 9.79565 2.06237e-07 9V3.5C-0.00016248 3.18967 0.0959278 2.88694 0.275028 2.63351C0.454129 2.38008 0.707422 2.18844 1 2.085ZM8.5 0C8.89782 0 9.27936 0.158035 9.56066 0.43934C9.84196 0.720644 10 1.10218 10 1.5V8.5C10 8.89782 9.84196 9.27936 9.56066 9.56066C9.27936 9.84196 8.89782 10 8.5 10H3.5C3.10218 10 2.72064 9.84196 2.43934 9.56066C2.15804 9.27936 2 8.89782 2 8.5V1.5C2 1.10218 2.15804 0.720644 2.43934 0.43934C2.72064 0.158035 3.10218 0 3.5 0H8.5ZM8.5 1H3.5C3.36739 1 3.24022 1.05268 3.14645 1.14645C3.05268 1.24021 3 1.36739 3 1.5V8.5C3 8.63261 3.05268 8.75979 3.14645 8.85355C3.24022 8.94732 3.36739 9 3.5 9H8.5C8.63261 9 8.75979 8.94732 8.85355 8.85355C8.94732 8.75979 9 8.63261 9 8.5V1.5C9 1.36739 8.94732 1.24021 8.85355 1.14645C8.75979 1.05268 8.63261 1 8.5 1Z" fill="white"/>
</svg>
