<svg width="24" height="24" viewBox="0 0 24 24" fill="none" xmlns="http://www.w3.org/2000/svg">
<path fill-rule="evenodd" clip-rule="evenodd" d="M10.546 2.43817C10.9171 2.85012 11.4455 3.08531 12 3.08531C12.5545 3.08531 13.0829 2.85012 13.454 2.43817L14.4 1.40017C14.9556 0.785312 15.8379 0.586529 16.6035 0.90375C17.369 1.22097 17.8521 1.98557 17.81 2.81317L17.739 4.21317C17.7112 4.76544 17.9183 5.30371 18.309 5.695C18.6997 6.0863 19.2377 6.29413 19.79 6.26717L21.19 6.19617C22.017 6.1554 22.7804 6.63903 23.0968 7.40424C23.4132 8.16945 23.2143 9.05095 22.6 9.60617L21.558 10.5462C21.1466 10.9178 20.9118 11.4463 20.9118 12.0007C20.9118 12.5551 21.1466 13.0836 21.558 13.4552L22.6 14.3952C23.2149 14.9507 23.4136 15.8331 23.0964 16.5986C22.7792 17.3642 22.0146 17.8473 21.187 17.8052L19.787 17.7342C19.2335 17.7057 18.6938 17.9132 18.3019 18.3051C17.91 18.697 17.7025 19.2366 17.731 19.7902L17.802 21.1902C17.8387 22.0134 17.3563 22.7716 16.595 23.0871C15.8337 23.4026 14.9564 23.208 14.4 22.6002L13.459 21.5592C13.0876 21.1478 12.5593 20.913 12.005 20.913C11.4507 20.913 10.9224 21.1478 10.551 21.5592L9.606 22.6002C9.0504 23.2109 8.17154 23.4077 7.40854 23.0923C6.64554 22.7769 6.1622 22.0169 6.2 21.1922L6.272 19.7922C6.30047 19.2386 6.09302 18.699 5.7011 18.3071C5.30918 17.9152 4.76952 17.7077 4.216 17.7362L2.816 17.8072C1.98873 17.8504 1.22381 17.3682 0.905883 16.6033C0.587955 15.8383 0.785828 14.9561 1.4 14.4002L2.441 13.4602C2.85242 13.0886 3.08722 12.5601 3.08722 12.0057C3.08722 11.4513 2.85242 10.9228 2.441 10.5512L1.4 9.60617C0.787888 9.05092 0.590308 8.17113 0.906222 7.40747C1.22214 6.6438 1.98351 6.16071 2.809 6.20017L4.209 6.27117C4.76359 6.30033 5.30448 6.0926 5.69699 5.69971C6.0895 5.30682 6.2967 4.76574 6.267 4.21117L6.2 2.81017C6.16129 1.98504 6.64431 1.22429 7.40754 0.908333C8.17076 0.592377 9.05017 0.789116 9.606 1.40017L10.546 2.43817Z" stroke="white" stroke-width="1.5" stroke-linecap="round" stroke-linejoin="round"/>
<path fill-rule="evenodd" clip-rule="evenodd" d="M12 16.501C14.4853 16.501 16.5 14.4863 16.5 12.001C16.5 9.5157 14.4853 7.50098 12 7.50098C9.51472 7.50098 7.5 9.5157 7.5 12.001C7.5 14.4863 9.51472 16.501 12 16.501Z" stroke="white" stroke-width="1.5" stroke-linecap="round" stroke-linejoin="round"/>
</svg>
